<svg version="1.1" id="Layer_1" xmlns="http://www.w3.org/2000/svg" xmlns:xlink="http://www.w3.org/1999/xlink" x="0px" y="0px"
	 width="100%" viewBox="0 0 500 500" enable-background="new 0 0 500 500" xml:space="preserve">
<path fill="#F6F0FF" opacity="1.000000" stroke="none" 
	d="
M501.000000,255.000000 
	C501.000000,336.982300 501.000000,418.964630 501.000000,500.973450 
	C334.386963,500.973450 167.773941,500.973450 1.080460,500.973450 
	C1.080460,334.422974 1.080460,167.845871 1.080460,1.134387 
	C167.666595,1.134387 334.333282,1.134387 501.000000,1.128825 
	C501.000000,83.772171 501.000000,166.421066 500.723206,249.349426 
	C498.581451,247.306885 496.909119,244.793320 494.821045,242.693100 
	C477.783875,225.556961 460.728699,208.437500 443.516785,191.477554 
	C440.780365,188.781219 439.771729,186.063522 439.794556,182.292145 
	C439.939789,158.295242 439.892242,134.297012 439.854523,110.299309 
	C439.840973,101.669586 436.315186,98.175133 427.676575,98.138687 
	C417.011078,98.093697 406.345276,98.125359 395.679596,98.127502 
	C383.938934,98.129860 381.335175,100.758453 381.326111,112.615768 
	C381.322296,117.644768 381.325470,122.673767 381.325470,127.702766 
	C380.838593,127.884361 380.351715,128.065964 379.864868,128.247559 
	C377.290131,125.495750 374.790619,122.668869 372.129395,120.003456 
	C335.274261,83.090698 298.397736,46.199310 261.524475,9.304670 
	C253.270981,1.046391 249.755875,1.023545 241.608566,9.171463 
	C164.779770,86.006210 87.951912,162.841919 11.124660,239.678223 
	C9.239361,241.563751 7.322496,243.420090 5.493792,245.359314 
	C2.568901,248.460953 0.933858,251.924881 2.753416,256.244446 
	C4.626230,260.690460 8.136315,262.183685 12.747911,262.158844 
	C27.246136,262.080872 41.745052,262.131622 56.243702,262.132507 
	C58.016338,262.132629 59.788975,262.132507 62.014046,262.132507 
	C62.014046,264.757141 62.014046,266.722412 62.014046,268.687653 
	C62.014103,322.682617 62.005898,376.677612 62.023029,430.672577 
	C62.025623,438.846588 65.126869,442.076721 73.042152,442.081024 
	C119.704460,442.106293 166.366791,442.096924 213.029099,442.076569 
	C214.219299,442.076050 215.409393,441.814789 217.053238,441.621887 
	C213.351395,436.119690 209.946823,431.199188 206.684418,426.186157 
	C192.108856,403.789398 178.872192,380.713776 171.793564,354.677338 
	C163.130905,322.814453 169.617859,294.449097 193.016388,270.932587 
	C227.961044,235.811691 287.284210,240.279648 317.108704,280.204163 
	C336.093933,305.618744 338.251831,333.641754 327.986023,363.137573 
	C318.868378,389.334534 304.745026,412.819305 289.127075,435.514069 
	C287.774323,437.479797 286.462708,439.473816 284.702179,442.094452 
	C287.294403,442.094452 288.786224,442.094482 290.278046,442.094452 
	C336.273773,442.094391 382.269470,442.097382 428.265198,442.091797 
	C438.262451,442.090576 440.983490,439.356750 440.984192,429.329132 
	C440.987946,375.667480 440.985962,322.005798 440.985962,268.344147 
	C440.985962,266.414459 440.985931,264.484772 440.985931,262.132507 
	C443.498230,262.132507 445.299011,262.132538 447.099792,262.132507 
	C460.931854,262.132263 474.765228,262.020355 488.595306,262.185364 
	C494.325714,262.253754 498.648590,260.478851 501.000000,255.000000 
M230.491394,308.978912 
	C221.225174,318.201447 219.124802,329.193329 223.718323,341.082428 
	C228.201859,352.686890 237.299774,359.062775 249.711945,359.788086 
	C263.297485,360.581909 275.345093,351.895660 279.413910,339.107330 
	C283.386200,326.622375 278.444122,312.706085 267.416473,305.324066 
	C256.335144,297.906097 241.650375,299.174652 230.491394,308.978912 
z"/>
<path fill="#8C52FF" opacity="1.000000" stroke="none" 
	d="
M501.000000,254.583344 
	C498.648590,260.478851 494.325714,262.253754 488.595306,262.185364 
	C474.765228,262.020355 460.931854,262.132263 447.099792,262.132507 
	C445.299011,262.132538 443.498230,262.132507 440.985931,262.132507 
	C440.985931,264.484772 440.985962,266.414459 440.985962,268.344147 
	C440.985962,322.005798 440.987946,375.667480 440.984192,429.329132 
	C440.983490,439.356750 438.262451,442.090576 428.265198,442.091797 
	C382.269470,442.097382 336.273773,442.094391 290.278046,442.094452 
	C288.786224,442.094482 287.294403,442.094452 284.702179,442.094452 
	C286.462708,439.473816 287.774323,437.479797 289.127075,435.514069 
	C304.745026,412.819305 318.868378,389.334534 327.986023,363.137573 
	C338.251831,333.641754 336.093933,305.618744 317.108704,280.204163 
	C287.284210,240.279648 227.961044,235.811691 193.016388,270.932587 
	C169.617859,294.449097 163.130905,322.814453 171.793564,354.677338 
	C178.872192,380.713776 192.108856,403.789398 206.684418,426.186157 
	C209.946823,431.199188 213.351395,436.119690 217.053238,441.621887 
	C215.409393,441.814789 214.219299,442.076050 213.029099,442.076569 
	C166.366791,442.096924 119.704460,442.106293 73.042152,442.081024 
	C65.126869,442.076721 62.025623,438.846588 62.023029,430.672577 
	C62.005898,376.677612 62.014103,322.682617 62.014046,268.687653 
	C62.014046,266.722412 62.014046,264.757141 62.014046,262.132507 
	C59.788975,262.132507 58.016338,262.132629 56.243702,262.132507 
	C41.745052,262.131622 27.246136,262.080872 12.747911,262.158844 
	C8.136315,262.183685 4.626230,260.690460 2.753416,256.244446 
	C0.933858,251.924881 2.568901,248.460953 5.493792,245.359314 
	C7.322496,243.420090 9.239361,241.563751 11.124660,239.678223 
	C87.951912,162.841919 164.779770,86.006210 241.608566,9.171463 
	C249.755875,1.023545 253.270981,1.046391 261.524475,9.304670 
	C298.397736,46.199310 335.274261,83.090698 372.129395,120.003456 
	C374.790619,122.668869 377.290131,125.495750 379.864868,128.247559 
	C380.351715,128.065964 380.838593,127.884361 381.325470,127.702766 
	C381.325470,122.673767 381.322296,117.644768 381.326111,112.615768 
	C381.335175,100.758453 383.938934,98.129860 395.679596,98.127502 
	C406.345276,98.125359 417.011078,98.093697 427.676575,98.138687 
	C436.315186,98.175133 439.840973,101.669586 439.854523,110.299309 
	C439.892242,134.297012 439.939789,158.295242 439.794556,182.292145 
	C439.771729,186.063522 440.780365,188.781219 443.516785,191.477554 
	C460.728699,208.437500 477.783875,225.556961 494.821045,242.693100 
	C496.909119,244.793320 498.581451,247.306885 500.723206,249.814453 
	C501.000000,251.388885 501.000000,252.777786 501.000000,254.583344 
z"/>
<path fill="#8D53FF" opacity="1.000000" stroke="none" 
	d="
M230.745453,308.724426 
	C241.650375,299.174652 256.335144,297.906097 267.416473,305.324066 
	C278.444122,312.706085 283.386200,326.622375 279.413910,339.107330 
	C275.345093,351.895660 263.297485,360.581909 249.711945,359.788086 
	C237.299774,359.062775 228.201859,352.686890 223.718323,341.082428 
	C219.124802,329.193329 221.225174,318.201447 230.745453,308.724426 
z"/>
</svg>